<?xml version="1.0" encoding="UTF-8" standalone="no"?>
<svg
   version="1.0"
   width="1024.000000pt"
   height="1024.000000pt"
   viewBox="0 0 1024.000000 1024.000000"
   preserveAspectRatio="xMidYMid meet"
   id="svg6"
   sodipodi:docname="logo.svg"
   inkscape:version="1.4.3 (0d15f75, 2025-12-25)"
   xmlns:inkscape="http://www.inkscape.org/namespaces/inkscape"
   xmlns:sodipodi="http://sodipodi.sourceforge.net/DTD/sodipodi-0.dtd"
   xmlns="http://www.w3.org/2000/svg"
   xmlns:svg="http://www.w3.org/2000/svg">
  <defs
     id="defs6">
    <pattern
       patternUnits="userSpaceOnUse"
       width="580.14366"
       height="118.58634"
       patternTransform="translate(431.2285,855.22277)"
       preserveAspectRatio="xMidYMid"
       id="pattern6">
      <text
         xml:space="preserve"
         style="font-size:113.333px;writing-mode:lr-tb;direction:ltr;fill:#ffffff;stroke-width:1"
         x="0.45266655"
         y="77.803886"
         id="text6"
         transform="rotate(4.0186717)"><tspan
           sodipodi:role="line"
           id="tspan6"
           style="font-style:normal;font-variant:normal;font-weight:normal;font-stretch:normal;font-size:113.333px;font-family:'Berlin Sans FB Demi';-inkscape-font-specification:'Berlin Sans FB Demi';fill:#ffffff;stroke-width:1"
           x="0.45266655"
           y="77.803886">MECHELEN</tspan></text>
    </pattern>
  </defs>
  <sodipodi:namedview
     id="namedview6"
     pagecolor="#ffffff"
     bordercolor="#000000"
     borderopacity="0.25"
     inkscape:showpageshadow="2"
     inkscape:pageopacity="0.0"
     inkscape:pagecheckerboard="0"
     inkscape:deskcolor="#d1d1d1"
     inkscape:document-units="pt"
     inkscape:zoom="0.84"
     inkscape:cx="682.14286"
     inkscape:cy="862.5"
     inkscape:window-width="1920"
     inkscape:window-height="1017"
     inkscape:window-x="1912"
     inkscape:window-y="-8"
     inkscape:window-maximized="1"
     inkscape:current-layer="svg6" />
  <g
     transform="translate(0.000000,1024.000000) scale(0.100000,-0.100000)"
     fill="#000000"
     stroke="none"
     id="g6">
    <path
       d="m 4870,9600 c -58,-4 -127,-10 -155,-13 -27,-3 -81,-9 -120,-12 -288,-27 -825,-171 -1165,-313 -484,-201 -883,-456 -1281,-818 -261,-238 -477,-492 -672,-791 -115,-176 -109,-167 -184,-303 -194,-352 -370,-817 -449,-1188 -26,-123 -37,-185 -68,-412 -8,-58 -18,-139 -21,-180 -4,-41 -9,-88 -12,-105 -7,-42 -7,-565 0,-600 4,-17 9,-68 12,-115 14,-199 60,-472 120,-710 35,-137 118,-397 155,-485 5,-11 32,-76 60,-144 28,-69 69,-159 90,-200 l 38,-76 -152,-127 c -83,-70 -200,-168 -261,-218 -76,-63 -118,-107 -135,-138 -24,-45 -25,-53 -24,-232 1,-210 12,-255 75,-303 56,-42 72,-44 609,-92 582,-52 678,-63 701,-79 12,-8 51,-43 87,-78 118,-113 232,-203 496,-395 47,-35 264,-173 271,-173 2,0 39,-21 82,-46 166,-99 501,-250 723,-327 84,-29 271,-86 303,-93 11,-2 34,-8 51,-14 28,-9 279,-62 351,-74 284,-47 477,-59 828,-53 171,3 323,7 337,10 27,5 76,11 215,27 187,22 467,88 700,165 435,144 867,368 1220,633 222,167 298,233 500,436 317,318 599,697 791,1062 25,49 50,94 54,99 24,32 152,338 210,500 140,393 223,791 257,1240 14,172 7,606 -11,766 -53,473 -163,903 -328,1293 -66,154 -187,400 -242,490 -20,33 -36,67 -36,76 0,25 38,325 54,425 8,50 25,152 37,228 32,203 19,279 -62,372 -39,44 -155,122 -228,151 -55,23 -61,24 -464,24 -449,0 -431,-2 -505,64 -139,125 -615,391 -927,519 -378,154 -825,270 -1190,307 -60,6 -126,13 -145,15 -72,9 -489,13 -590,5 z m 690,-316 c 238,-33 528,-96 751,-164 118,-36 335,-114 404,-145 16,-7 73,-32 125,-55 121,-53 362,-180 389,-205 11,-11 -30,-13 -225,-9 -132,2 -486,6 -789,8 -302,3 -705,8 -895,10 -421,6 -1531,18 -1845,20 -229,1 -230,1 -286,-25 -101,-48 -180,-152 -207,-274 -12,-50 -62,-357 -103,-620 -11,-77 -32,-207 -46,-290 -13,-82 -42,-262 -63,-400 -21,-137 -50,-317 -64,-400 -13,-82 -38,-238 -55,-345 -17,-107 -36,-220 -41,-250 -5,-30 -28,-170 -50,-310 -22,-140 -44,-275 -50,-300 -5,-25 -12,-67 -15,-95 -3,-27 -10,-70 -15,-95 -4,-25 -13,-79 -20,-120 -6,-41 -20,-124 -30,-185 -28,-159 -125,-786 -139,-895 -7,-58 -38,-120 -72,-144 -11,-7 -41,-33 -67,-57 -26,-24 -99,-87 -162,-140 -63,-53 -164,-138 -224,-189 -207,-176 -318,-262 -326,-253 -21,20 -144,319 -199,481 -104,307 -175,656 -206,1022 -13,155 -4,577 15,725 5,39 12,97 15,130 20,217 140,710 229,943 75,197 128,312 239,517 118,218 271,449 398,599 9,12 53,64 97,116 99,119 368,382 498,487 394,318 839,564 1279,706 108,35 376,108 445,121 223,43 302,58 340,62 25,3 51,7 58,9 6,3 65,7 130,11 64,4 118,7 120,9 1,1 127,2 280,2 187,1 311,-4 382,-13 z M 3980,8565 c 305,-3 798,-7 1095,-10 297,-3 720,-7 940,-10 220,-3 879,-7 1465,-11 638,-3 1078,-9 1096,-15 41,-13 63,-38 78,-89 11,-36 8,-67 -16,-228 -15,-103 -44,-299 -63,-437 -20,-137 -51,-356 -70,-485 -19,-129 -73,-509 -120,-845 -76,-537 -174,-1213 -189,-1300 -3,-16 -16,-106 -30,-200 -14,-93 -45,-305 -70,-470 -25,-165 -48,-320 -51,-345 -7,-58 -34,-185 -47,-228 -11,-36 -72,-74 -142,-86 l -38,-7 6,53 c 3,29 13,98 21,153 15,95 43,294 85,600 33,243 51,369 55,395 4,27 64,444 70,495 3,17 16,107 29,200 14,94 30,199 35,235 24,173 93,651 111,775 30,199 40,270 50,350 6,39 12,84 15,100 6,39 33,232 51,365 7,58 20,148 29,200 8,52 22,145 31,205 17,125 17,125 34,222 12,68 12,73 -11,120 -17,34 -36,54 -64,69 -40,22 -42,22 -1040,28 -550,3 -1106,8 -1235,11 -326,7 -846,13 -1730,22 -1043,11 -963,12 -997,-13 -46,-35 -63,-77 -84,-206 -10,-68 -32,-208 -49,-313 -16,-104 -43,-275 -60,-380 -16,-104 -50,-314 -74,-465 -25,-151 -61,-378 -81,-505 -106,-670 -176,-1105 -216,-1335 -11,-63 -33,-199 -50,-302 -24,-153 -75,-447 -104,-593 -3,-16 -8,-67 -12,-112 -3,-46 -10,-83 -15,-83 -18,0 -84,39 -105,62 -39,42 -41,77 -11,272 36,238 115,720 133,821 8,44 17,100 20,125 3,25 10,72 16,105 17,92 17,91 40,235 11,74 22,142 24,150 1,8 5,33 9,55 3,22 14,96 25,165 11,69 23,145 26,170 3,25 8,52 10,60 2,8 7,35 10,60 3,25 22,142 41,260 19,118 48,298 65,400 16,102 36,226 44,275 8,50 28,182 45,295 17,113 37,237 45,275 13,72 29,168 65,405 28,181 34,200 74,239 46,45 98,62 171,56 33,-2 310,-7 615,-10 z m 955,-380 c 176,-3 496,-7 710,-10 215,-3 543,-7 730,-10 187,-3 549,-7 805,-10 679,-7 1024,-16 1034,-26 9,-8 -14,-188 -90,-699 -10,-73 -117,-819 -129,-905 -2,-16 -9,-64 -15,-105 -6,-41 -20,-140 -31,-220 -11,-80 -27,-185 -34,-235 -8,-49 -23,-153 -34,-230 -18,-125 -66,-448 -91,-610 -5,-33 -10,-64 -10,-69 0,-8 -273,-2 -400,9 -25,2 -108,6 -185,9 -77,4 -162,9 -190,11 -58,6 -375,22 -585,30 -80,3 -160,8 -179,11 l -35,6 70,40 c 38,22 123,72 189,110 133,77 171,108 191,155 31,73 10,132 -70,197 -35,29 -47,47 -51,74 -3,21 -12,68 -19,105 -12,57 -12,78 -1,126 66,280 12,509 -186,796 -206,299 -217,330 -229,686 -12,343 -29,416 -127,520 -95,102 -219,145 -413,143 -140,-1 -253,-40 -350,-120 -35,-30 -101,-132 -121,-189 -19,-53 -48,-270 -69,-505 -6,-69 -14,-136 -17,-150 -13,-56 -97,-200 -163,-280 -87,-105 -225,-302 -275,-392 -72,-133 -145,-336 -145,-407 0,-28 -4,-31 -82,-56 -97,-30 -136,-56 -179,-115 -32,-44 -32,-46 -67,-305 -22,-165 7,-247 107,-297 30,-15 57,-31 60,-34 5,-6 -303,4 -339,11 -8,1 -91,6 -185,10 -93,4 -172,8 -175,10 -3,2 -81,6 -175,10 -93,4 -210,10 -260,14 l -90,6 1,30 c 0,17 8,77 17,135 9,58 25,164 36,235 11,72 36,229 55,350 72,450 127,798 130,824 2,14 25,157 50,316 112,700 134,842 142,905 3,30 13,68 21,84 l 15,29 556,-7 c 307,-3 701,-8 877,-11 z m 408,-515 c 36,-28 61,-110 53,-173 -6,-56 -18,-72 -58,-82 l -26,-7 14,43 c 25,72 -2,128 -53,108 -44,-16 -76,-106 -53,-149 14,-26 -1,-42 -35,-38 -45,6 -58,164 -21,237 39,75 124,104 179,61 z m 422,-11 c 20,-18 43,-45 51,-60 21,-41 18,-148 -6,-211 -32,-84 -32,-84 -78,-53 l -41,27 19,39 c 20,38 27,114 12,135 -12,19 -50,22 -71,7 -28,-19 -51,-65 -51,-101 0,-38 -5,-42 -47,-29 l -35,11 7,60 c 8,74 32,122 84,169 55,49 104,51 156,6 z m -445,-149 c 0,-21 -15,-27 -25,-10 -7,12 2,30 16,30 5,0 9,-9 9,-20 z m 397,-24 c -4,-9 -11,-16 -17,-16 -11,0 -14,33 -3,43 11,11 26,-10 20,-27 z m -211,-107 c 71,-12 226,-86 272,-128 17,-16 32,-39 32,-50 0,-50 -183,-162 -295,-180 -134,-21 -266,19 -345,106 -55,58 -57,99 -8,149 54,57 176,110 259,113 14,1 52,-4 85,-10 z m 314,-414 c 12,-44 52,-152 90,-240 78,-183 104,-265 120,-385 9,-68 9,-203 1,-297 -1,-7 -21,-22 -45,-34 -130,-61 -168,-134 -204,-397 -7,-51 -16,-78 -29,-87 -36,-28 -159,-83 -208,-94 -162,-36 -349,-11 -456,62 -64,43 -339,506 -339,570 0,137 79,355 202,555 68,111 186,346 198,394 l 12,45 50,-33 c 75,-51 143,-67 257,-62 106,5 169,25 261,81 63,38 56,44 90,-78 z m 3030,-42 c 77,-161 170,-417 215,-585 43,-163 93,-399 105,-493 9,-72 17,-128 25,-180 2,-16 7,-75 11,-130 3,-55 8,-103 10,-107 7,-10 5,-444 -1,-535 -16,-224 -56,-499 -101,-688 -32,-136 -91,-344 -104,-367 -6,-10 -10,-23 -10,-30 0,-20 -93,-266 -143,-378 -115,-258 -268,-519 -459,-780 -148,-202 -496,-567 -708,-742 -124,-101 -280,-222 -280,-215 0,3 25,49 56,103 31,55 75,133 99,174 23,41 51,91 62,111 150,261 445,809 570,1057 l 77,154 1,166 c 0,92 -4,181 -9,198 -7,28 -5,33 12,39 44,13 67,90 97,325 2,19 15,112 29,205 28,180 73,487 81,545 3,19 19,127 35,240 17,113 37,250 45,305 8,55 28,192 45,305 17,113 38,252 46,310 8,58 31,209 49,335 63,422 105,709 105,717 0,19 10,4 40,-59 z M 6146,6545 c 50,-105 74,-210 73,-324 -2,-108 -9,-157 -24,-150 -6,2 -9,43 -7,103 4,112 -12,197 -64,346 -18,52 -36,104 -39,115 l -7,20 17,-20 c 10,-11 32,-51 51,-90 z M 4727,6353 c -14,-37 -30,-94 -37,-125 -7,-32 -17,-55 -22,-52 -13,8 14,123 49,203 33,75 40,57 10,-26 z m -142,-353 c 48,-16 106,-84 175,-205 35,-60 87,-148 116,-195 80,-130 124,-219 124,-249 0,-41 -41,-113 -78,-138 -63,-41 -110,-40 -246,5 -168,57 -184,61 -382,87 -129,18 -147,76 -110,355 2,14 7,52 11,85 4,33 14,72 21,87 17,33 63,67 110,80 35,9 115,54 162,89 23,18 40,18 97,-1 z m 1435,-97 c 0,-44 37,-108 74,-128 48,-26 127,-16 199,25 42,24 64,30 85,25 26,-5 30,-11 41,-73 17,-86 45,-146 79,-167 45,-29 82,-68 82,-86 0,-29 -60,-83 -144,-128 -44,-24 -124,-72 -178,-108 -148,-96 -220,-128 -295,-128 -76,0 -109,22 -137,88 -19,44 -19,50 -3,139 88,513 84,498 145,548 40,33 52,31 52,-7 z m -700,-667 c 85,-8 207,-18 271,-21 113,-7 116,-7 132,-35 10,-15 17,-31 17,-34 0,-4 -24,-5 -52,-2 -29,2 -111,8 -183,11 -71,4 -146,8 -165,10 -19,2 -88,7 -152,11 -65,4 -118,9 -118,11 0,2 7,17 15,33 17,32 31,41 60,35 11,-2 90,-11 175,-19 z M 3418,5041 c 13,-8 13,-12 -14,-161 -31,-172 -74,-433 -72,-435 2,-2 76,-7 166,-12 89,-6 165,-13 169,-17 4,-3 -2,-52 -13,-109 l -19,-102 h -75 c -97,0 -445,22 -487,31 -29,6 -29,22 -3,156 11,57 40,224 65,371 24,148 47,273 50,278 8,11 215,12 233,0 z m 717,-33 c 8,-8 8,-38 2,-88 -17,-123 -118,-697 -127,-718 -10,-22 -13,-23 -122,-20 l -113,3 -3,26 c -2,14 25,181 58,370 34,189 64,360 67,379 10,60 16,63 131,57 57,-3 105,-7 107,-9 z m 417,-29 c 9,-5 70,-102 135,-216 81,-144 119,-202 122,-188 2,11 18,103 35,205 l 32,185 113,-1 c 64,-1 117,-6 123,-12 13,-13 -117,-798 -134,-819 -7,-9 -39,-13 -93,-13 -144,0 -133,-8 -226,159 -125,223 -171,302 -174,299 -2,-2 -15,-77 -29,-168 -15,-91 -30,-185 -34,-210 l -7,-45 -65,1 c -189,3 -185,0 -164,111 7,39 38,215 68,391 30,177 57,326 61,333 9,13 208,3 237,-12 z m 966,-45 c 28,-6 28,-25 3,-170 -62,-356 -66,-390 -47,-418 23,-36 54,-46 139,-46 83,0 110,13 126,63 6,17 24,115 41,217 36,220 49,299 56,323 5,15 18,17 97,16 127,-2 151,-8 155,-40 2,-13 -11,-101 -27,-194 -16,-94 -37,-219 -47,-280 -9,-60 -25,-133 -36,-162 -22,-61 -80,-122 -146,-154 -44,-22 -59,-24 -217,-24 -153,0 -177,2 -239,24 -120,41 -186,128 -186,243 0,34 70,463 90,553 6,27 16,52 22,56 10,7 176,1 216,-7 z m 1019,-70 c 12,-13 50,-71 84,-129 33,-58 64,-107 69,-110 4,-2 56,47 115,111 59,63 115,119 124,123 15,9 244,-3 300,-15 22,-5 15,-15 -95,-127 -65,-67 -157,-161 -202,-208 l -84,-86 85,-144 c 46,-79 105,-178 130,-219 26,-41 47,-78 47,-83 0,-8 -63,-5 -238,9 -84,7 -73,-4 -177,186 l -59,107 -125,-131 -126,-131 -144,7 c -80,3 -147,9 -150,11 -3,3 29,40 70,83 41,42 117,124 169,182 52,58 104,117 117,131 l 23,25 -115,207 c -63,113 -115,213 -115,222 0,14 16,15 138,10 128,-6 138,-8 159,-31 z M 2630,3932 c 0,-45 -3,-51 -42,-83 -24,-18 -104,-86 -178,-149 -74,-64 -213,-182 -308,-264 -95,-81 -178,-159 -184,-172 -8,-17 -8,-34 -2,-52 8,-23 18,-29 65,-38 31,-6 125,-14 209,-18 84,-4 156,-8 159,-10 3,-2 66,-7 139,-10 73,-4 139,-9 145,-11 7,-2 53,-6 102,-10 146,-9 566,-42 644,-50 25,-3 162,-14 305,-25 144,-11 286,-22 316,-24 30,-3 170,-14 310,-26 140,-11 329,-27 420,-35 91,-8 228,-19 305,-25 136,-10 196,-15 300,-25 28,-2 88,-7 135,-10 47,-3 157,-12 245,-20 88,-8 198,-17 245,-20 47,-3 132,-10 190,-15 58,-5 141,-12 185,-15 44,-3 130,-10 190,-15 61,-5 151,-12 200,-15 50,-4 108,-8 130,-10 221,-21 455,-36 482,-32 54,9 88,42 132,126 l 68,130 c 12,20 36,63 53,96 18,33 35,65 40,70 9,12 58,103 142,261 59,114 71,161 43,184 -8,7 -15,19 -15,28 0,13 18,14 142,9 77,-4 143,-9 146,-11 5,-6 -96,-194 -278,-521 -646,-1156 -634,-1138 -741,-1170 -80,-23 -114,-22 -539,20 -80,8 -183,17 -230,20 -47,3 -96,8 -110,10 -14,3 -56,7 -95,10 -38,3 -86,8 -105,10 -19,3 -66,7 -105,10 -38,3 -137,12 -220,20 -194,19 -346,34 -520,50 -33,3 -80,7 -105,10 -52,5 -93,9 -330,30 -96,8 -245,22 -330,30 -85,8 -186,17 -225,20 -38,3 -86,8 -105,10 -19,3 -237,23 -485,45 -247,23 -466,43 -485,45 -19,2 -73,7 -120,10 -47,4 -92,8 -100,10 -8,1 -55,6 -105,9 -49,4 -106,9 -125,11 -38,4 -135,13 -215,20 -27,3 -95,9 -150,15 -55,5 -136,12 -180,15 -44,3 -93,8 -110,10 -36,5 -298,30 -530,50 -93,8 -190,17 -215,19 -74,8 -160,15 -250,21 -142,10 -151,13 -164,68 -5,23 -1,33 22,55 44,42 162,145 196,169 16,13 32,26 35,31 11,15 318,276 696,590 114,95 170,142 375,318 303,261 305,262 423,263 l 67,1 z m 421,-37 c 89,-32 122,-85 121,-197 -1,-169 -92,-248 -254,-218 -73,14 -102,47 -94,107 9,66 32,102 79,124 79,35 104,17 68,-51 -22,-43 -20,-66 10,-75 62,-20 103,91 59,162 -44,73 -180,58 -239,-26 -65,-93 -58,-237 12,-281 12,-7 60,-18 107,-25 l 85,-11 -2,-35 c -7,-85 -3,-83 -108,-76 -108,7 -154,26 -203,81 -41,47 -56,104 -48,192 8,101 40,176 104,245 83,90 196,121 303,84 z m 389,-1780 c 212,-19 432,-39 490,-45 58,-6 182,-17 275,-25 278,-24 275,-24 275,-76 0,-46 -19,-52 -127,-40 -54,5 -134,13 -178,16 -44,3 -96,7 -115,10 -19,2 -66,7 -105,10 -38,3 -90,8 -115,10 -47,5 -113,10 -510,45 -129,11 -251,22 -270,25 -19,2 -45,4 -57,5 -17,0 -25,9 -34,39 -17,59 -8,73 43,66 24,-3 216,-21 428,-40 z m -592,-236 c 119,-11 372,-36 562,-55 190,-19 392,-39 450,-44 58,-5 148,-14 200,-20 184,-21 444,-48 535,-55 39,-3 81,-8 95,-10 14,-2 54,-7 90,-10 36,-3 99,-10 140,-15 86,-11 129,-15 335,-35 83,-8 260,-26 395,-40 257,-26 355,-36 610,-60 85,-9 171,-17 190,-20 50,-6 127,-14 185,-19 144,-14 174,-18 225,-26 30,-5 72,-11 93,-12 20,-1 37,-5 37,-8 0,-3 -62,-36 -137,-74 -403,-201 -914,-340 -1362,-372 -36,-2 -88,-7 -116,-9 -55,-6 -452,-6 -500,0 -16,1 -70,6 -120,10 -453,33 -943,170 -1400,390 -66,32 -116,59 -280,150 -121,67 -466,297 -519,346 -15,14 55,11 292,-12 z"
       id="path1"
       sodipodi:nodetypes="cccccccccccccccccccccccccccsccccccccccccccccccsscccsccccccccccccccccccccssscccccccssccccccccccccccccsccssscccccscccscccccccccccccccccccccccccccccccccscccsccccsssssccsccccsscsccccsscccscccccccccccccccccccccccscccscccsccccsccccccccsccccccccccccscccccscccccscsscsccccsccccccccccccccsccccccccccccccccscccsccccccccccccssscscccccccccccccccsccsccccscccsscccccsccscccssccsccscsccsccsccccscccccsccccccccsccccccscscscccccccccccscccccccccscsscccccccccccccsccccccccscccsccsccccccsscccccccsccsssssccccccccccscccccsccccccccscccscccsccsccccccccccccsccccccccccccccccccsscscsccccccccscsscsssccccccccsccccccccc" />
    <path
       d="M5706 7221 c-9 -14 -125 -76 -167 -90 -20 -7 -70 -12 -110 -12 -86 -1 -155 23 -207 74 -25 24 -35 28 -44 19 -9 -9 -5 -19 18 -43 85 -89 257 -117 396 -63 52 21 136 74 142 90 6 16 -20 39 -28 25z"
       id="path2" />
    <path
       d="M3256 2960 c-19 -6 -105 -87 -237 -222 -162 -165 -208 -219 -209 -239 -1 -54 -55 -47 895 -129 140 -12 191 -17 340 -30 61 -6 211 -19 335 -30 124 -11 255 -23 292 -26 56 -5 74 -3 111 15 24 12 55 34 68 49 74 82 296 375 311 408 20 43 -12 60 -129 68 -54 4 -145 11 -203 17 -140 12 -183 16 -475 39 -489 39 -981 80 -1025 84 -25 2 -58 0 -74 -4z"
       id="path3" />
    <path
       d="M4121 3714 c-12 -15 -21 -31 -21 -36 0 -5 -11 -74 -25 -155 -24 -137 -24 -147 -9 -165 20 -22 110 -25 138 -5 18 14 32 67 62 246 l17 105 -23 18 c-15 12 -39 18 -70 18 -41 0 -52 -4 -69 -26z"
       id="path4" />
    <path
       d="M4706 3610 c-10 -50 -16 -93 -14 -95 2 -1 31 -5 64 -8 76 -8 87 2 103 93 13 80 7 88 -76 96 l-60 7 -17 -93z"
       id="path5" />
    <path
       d="M5825 3619 c-2 -8 -11 -50 -18 -94 l-14 -80 65 -9 c80 -11 90 -2 108 91 16 85 9 95 -76 101 -44 3 -61 1 -65 -9z"
       id="path6" />
  </g>
  <path
     style="font-weight:bold;font-size:87.826px;font-family:'Berlin Sans FB Demi';-inkscape-font-specification:'Berlin Sans FB Demi Bold';fill:#ffffff;stroke-width:0.728891"
     d="m 386.0253,699.52384 q -0.0892,1.23768 -1.26549,1.16164 l -14.35869,-0.92812 q -1.17628,-0.0761 -1.07555,-1.47342 0.29065,-4.03246 1.15585,-12.07901 0.9058,-8.04394 1.19643,-12.0764 0.0835,-1.15782 -0.27584,-1.26128 -0.46345,0.21072 -6.3244,11.98559 -3.43264,6.91794 -6.86238,13.79594 -0.47182,0.89207 -1.09173,1.01244 -0.20569,0.0268 -1.62534,-0.065 -2.10917,-0.13633 -2.45724,-0.96106 -1.87377,-4.53336 -4.83884,-13.14839 -3.17391,-9.10987 -4.7954,-13.1857 -0.0668,-0.20486 -0.33341,-0.46277 -0.30982,0.34096 -0.36738,1.13949 -0.282,3.91267 -0.64322,11.75113 -0.36123,7.83847 -0.64323,11.75115 -0.10072,1.39738 -1.23643,1.32398 l -13.54746,-0.87569 q -0.81122,-0.0524 -0.99675,-0.3051 -0.14211,-0.28997 -0.0961,-0.92878 0.31368,-4.35186 1.34662,-13.02935 1.07639,-8.71479 1.39005,-13.06665 0.3338,-4.63134 0.84618,-17.39373 0.19824,-3.31642 0.34572,-9.88516 l 0.008,-0.68134 q 0.017,-0.80114 1.76112,-0.68839 2.23086,0.1442 6.70124,0.31283 4.47325,0.1287 6.70412,0.27289 0.44617,0.0289 1.13652,1.75815 l 9.99931,26.35768 q 1.07035,2.67643 1.92214,2.73149 0.44616,0.0289 2.12218,-2.87116 4.70102,-8.11951 13.94939,-24.48879 0.80177,-1.51252 1.613,-1.46008 1.17627,0.0761 3.5202,0.34786 2.38446,0.27447 3.6013,0.35313 1.01404,0.0656 3.09705,-3.5e-4 2.12355,-0.0639 3.13759,0.002 1.21686,0.0787 1.14779,1.03686 -0.33957,4.71118 -1.38088,14.07003 -0.99786,9.32156 -1.33742,14.03274 -0.31366,4.35185 -0.57594,13.07917 -0.2623,8.7273 -0.57308,13.03923 z m 49.88484,-8.00666 q -0.12375,1.71678 -1.14422,6.26362 -1.08981,4.94348 -1.72674,5.86497 -0.54139,0.72712 -1.39319,0.67206 -0.36505,-0.0236 -1.20821,-0.19844 -2.93218,-0.59063 -17.2503,-1.51615 -3.12321,-0.20187 -9.28565,-0.6403 -6.16243,-0.43842 -9.24507,-0.63768 -1.33853,-0.0865 -1.25509,-1.24434 0.32231,-4.47165 1.45364,-13.38345 1.17477,-8.94911 1.49708,-13.42073 0.32805,-4.55148 0.73626,-16.99972 0.10853,-3.2019 0.2416,-9.571 l -4.7e-4,-0.56157 q -0.0149,-0.92353 1.08022,-0.85273 3.00153,0.19401 8.99309,0.74175 6.03211,0.55036 9.03364,0.74437 2.96096,0.19139 8.93498,0.4171 5.97401,0.22571 8.93497,0.4171 2.10919,0.13634 2.32145,1.7144 0.13663,0.93138 0.20547,5.62887 0.11243,4.66017 0.0405,5.65832 -0.0605,0.83842 -0.87167,0.78598 -0.24335,-0.0157 -0.8489,-0.0949 -10.72598,-1.57577 -19.32497,-2.1316 -2.14974,-0.13896 -2.7084,0.82771 -0.23734,0.46599 -0.4244,3.06113 -0.19568,2.71492 0.55223,3.64573 0.63487,0.80314 2.58181,0.92898 0.40562,0.0263 1.58478,0.0624 1.18202,-0.004 1.95268,0.046 5.11073,0.33034 10.36327,0.38908 0.44906,-0.0106 2.24523,-0.0554 1.3906,-0.0707 2.20184,-0.0181 0.97347,0.063 0.90728,0.98121 0.0605,-0.83843 -1.17039,6.06137 -0.5547,3.17306 -0.78491,6.36708 -0.0576,0.79852 -1.23385,0.72247 0,0 -3.62172,-0.63521 -2.29473,-0.389 -10.52865,-0.92122 l -4.2995,-0.27792 q -1.66301,-0.1075 -2.00448,0.67265 -0.055,0.19701 -0.21903,2.47274 -0.2187,3.03432 0.12346,3.9389 0.58019,1.56174 5.06234,2.13225 -0.0811,-0.006 5.92194,0.38278 2.14974,0.13896 6.39402,0.0523 4.28771,-0.12395 6.39688,0.0124 0.89235,0.0575 0.78876,1.49498 z m 52.52557,6.80465 q -0.046,0.63881 -0.97267,1.62181 -8.09347,8.26121 -20.46463,7.46155 -12.65511,-0.81801 -19.91105,-9.83072 -7.07327,-8.72014 -6.16968,-21.25669 0.8748,-12.13728 8.98869,-20.1164 8.46717,-8.35741 20.55442,-7.5761 13.14183,0.84947 20.03244,9.27702 0.74794,0.9308 0.69901,1.60953 -0.0547,0.75857 -3.24504,5.44593 -3.1498,4.68998 -3.92307,5.24166 -0.34752,0.29843 -0.83424,0.26698 -0.2028,-0.0131 -1.91296,-1.7281 -2.05218,-2.05801 -4.08366,-3.27232 -3.08924,-1.80414 -6.53695,-2.02699 -5.9625,-0.38542 -9.84842,3.77564 -3.579,3.86002 -4.01065,9.84882 -0.43741,6.06864 2.55167,10.39331 3.24708,4.70236 9.20959,5.08778 3.52882,0.22809 6.80194,-1.08458 2.14057,-0.86441 4.41981,-2.52209 1.89405,-1.40181 2.09685,-1.38869 0.40562,0.0262 0.77957,0.49162 0.59719,0.7606 3.16914,5.21876 2.64153,4.62309 2.60989,5.06227 z m 58.25262,11.5871 q -0.0605,0.83843 -0.43985,1.01445 -0.17088,0.1093 -1.15011,0.12623 -2.49149,0.0794 -6.99379,-0.2114 -6.36812,-0.41162 -7.48656,-0.72459 -1.07789,-0.31034 -1.01746,-1.14877 0.22734,-3.15409 0.96593,-9.44395 0.78204,-6.32714 1.00938,-9.48123 0.11223,-1.55709 -0.76285,-1.85432 -1.35607,-0.40856 -9.7928,-0.9539 -8.4773,-0.54797 -9.91997,-0.32032 -0.90673,0.14194 -1.02185,1.73897 -0.22445,3.11416 -0.47055,9.35562 -0.24323,6.20152 -0.46771,9.3157 -0.0863,1.19777 -1.19587,1.32659 -1.31522,0.15566 -7.64277,-0.25334 -5.47576,-0.35396 -6.95927,-0.69052 -1.16188,-0.27565 -1.08706,-1.31371 0.3108,-4.31194 1.34373,-12.98943 1.07351,-8.67487 1.38718,-13.02674 0.3338,-4.63133 0.59581,-13.92021 0.26487,-9.32882 0.59869,-13.96014 0.0633,-0.87837 0.91509,-0.82332 1.25741,0.0813 3.76356,0.36362 2.54672,0.28494 3.80414,0.36622 1.29795,0.0839 3.90249,0.13192 2.64513,0.0507 3.94308,0.13454 0.68956,0.0446 0.63774,0.76323 -0.21581,2.99441 -1.09364,8.95435 -0.87495,5.92004 -1.09078,8.91444 -0.10071,1.39739 0.65268,1.68675 1.03158,0.38756 10.36065,0.99058 8.68012,0.56107 10.08223,0.33082 0.99072,-0.17663 1.09144,-1.57402 0.2072,-2.87461 0.34053,-8.68214 0.13621,-5.84744 0.34627,-8.76198 0.0892,-1.23768 1.10325,-1.17216 1.17629,0.0761 3.56076,0.35051 2.42505,0.27709 3.64189,0.35575 1.17627,0.0761 3.57801,0.11093 2.44231,0.0375 3.65914,0.11619 1.17627,0.0761 1.10721,1.03426 -0.33093,4.59139 -1.40416,13.82785 -1.03267,9.23907 -1.36649,13.8704 -0.31366,4.35186 -0.53537,13.08181 -0.18117,8.73253 -0.49197,13.04447 z m 49.80374,-8.0119 q -0.12375,1.71678 -1.14422,6.26362 -1.08981,4.94346 -1.72674,5.86497 -0.5414,0.72712 -1.39318,0.67206 -0.36506,-0.0235 -1.20821,-0.19844 -2.93218,-0.59063 -17.25031,-1.51615 -3.12321,-0.20188 -9.28565,-0.64029 -6.16242,-0.43844 -9.24507,-0.63769 -1.33853,-0.0865 -1.25509,-1.24434 0.32231,-4.47164 1.45365,-13.38345 1.17477,-8.94911 1.49707,-13.42073 0.32805,-4.55148 0.73627,-16.99972 0.10853,-3.20189 0.24159,-9.57099 l -4.7e-4,-0.56158 q -0.0149,-0.92353 1.08022,-0.85273 3.00154,0.19401 8.99308,0.74176 6.03212,0.55034 9.03366,0.74436 2.96096,0.1914 8.93497,0.4171 5.97402,0.22571 8.93498,0.4171 2.10919,0.13634 2.32145,1.71439 0.13662,0.93139 0.20556,5.62888 0.11243,4.66018 0.0405,5.6583 -0.0605,0.83844 -0.87166,0.786 -0.24336,-0.0157 -0.84891,-0.095 -10.72597,-1.57575 -19.32496,-2.13159 -2.14974,-0.13896 -2.70841,0.82771 -0.23735,0.466 -0.4244,3.06114 -0.19568,2.71493 0.55223,3.64571 0.63487,0.80316 2.58182,0.92899 0.4056,0.0262 1.58477,0.0624 1.18203,-0.004 1.95269,0.046 5.11073,0.33035 10.36325,0.38908 0.44907,-0.0106 2.24525,-0.0554 1.3906,-0.0707 2.20182,-0.0181 0.97348,0.063 0.90729,0.9812 0.0605,-0.83844 -1.17038,6.06138 -0.55471,3.17306 -0.78492,6.36706 -0.0575,0.79852 -1.23384,0.72248 0,0 -3.62172,-0.63521 -2.29474,-0.38901 -10.52867,-0.92124 l -4.29949,-0.2779 q -1.663,-0.1075 -2.0045,0.67265 -0.055,0.19701 -0.21902,2.47273 -0.2187,3.03433 0.12347,3.93891 0.58018,1.56174 5.06233,2.13223 -0.0811,-0.006 5.92194,0.3828 2.14975,0.13895 6.39401,0.0523 4.28772,-0.12394 6.39689,0.0124 0.89236,0.0575 0.78876,1.495 z m 41.72655,15.85365 q -3.48826,-0.22547 -9.07421,-0.74697 -7.28951,-0.63165 -9.07133,-0.78693 l -12.11628,-0.94363 q -1.82815,-0.0781 -5.2209,-0.49791 -1.16189,-0.27566 -1.08707,-1.31372 0.31366,-4.35185 1.0598,-13.00778 0.78957,-8.69322 1.10324,-13.04508 0.3338,-4.63133 0.71462,-13.87243 0.38369,-9.28104 0.71751,-13.91238 0.0633,-0.87834 1.28014,-0.79968 1.21684,0.0787 3.60132,0.35311 2.42504,0.27709 3.60132,0.35312 1.33852,0.0865 3.98362,0.13716 2.64801,0.0107 3.98652,0.0973 0.60843,0.0393 0.51318,0.79529 l -0.0781,0.5164 q -1.02773,7.47449 -2.72102,22.48702 l -0.80032,10.53764 q -0.36834,5.11043 -0.49751,7.46865 0.006,0.48173 0.0122,0.96345 0.006,0.48172 0.56526,0.63821 0.0406,0.002 1.05458,0.0682 3.65052,0.23596 10.93688,0.34595 7.3298,0.0727 10.9803,0.30863 1.09516,0.0707 1.02896,0.98907 -0.49208,6.82724 -1.86292,11.71243 -0.27763,1.02494 -0.941,1.18262 -0.20857,0.0668 -1.66877,-0.0276 z m 50.6314,-9.88373 q -0.12374,1.71678 -1.14423,6.26363 -1.0898,4.94346 -1.72672,5.86496 -0.5414,0.72713 -1.3932,0.67206 -0.36505,-0.0236 -1.2082,-0.19844 -2.9322,-0.59063 -17.25031,-1.51615 -3.12322,-0.20188 -9.28564,-0.64031 -6.16245,-0.43841 -9.2451,-0.63768 -1.33851,-0.0865 -1.25505,-1.24432 0.32228,-4.47165 1.45361,-13.38346 1.17477,-8.94912 1.49708,-13.42074 0.32805,-4.55148 0.73627,-16.99971 0.10852,-3.20189 0.24159,-9.57099 l -4.7e-4,-0.56158 q -0.0149,-0.92353 1.08021,-0.85273 3.00153,0.19401 8.9931,0.74174 6.0321,0.55037 9.03363,0.74438 2.96097,0.19139 8.93499,0.41711 5.97401,0.2257 8.93499,0.41709 2.10917,0.13634 2.32144,1.71439 0.13661,0.9314 0.20557,5.62889 0.11242,4.66017 0.0404,5.6583 -0.0605,0.83844 -0.87166,0.78599 -0.24336,-0.0157 -0.8489,-0.0949 -10.72598,-1.57577 -19.32496,-2.13159 -2.14975,-0.13896 -2.70842,0.8277 -0.23734,0.466 -0.42439,3.06115 -0.19569,2.71491 0.55223,3.64571 0.63487,0.80315 2.5818,0.92899 0.4056,0.0263 1.58477,0.0624 1.18203,-0.004 1.95269,0.046 5.11072,0.33035 10.36328,0.38908 0.44907,-0.0106 2.24525,-0.0554 1.39057,-0.0706 2.20181,-0.0181 0.97347,0.063 0.90728,0.98119 0.0605,-0.83842 -1.17038,6.06138 -0.5547,3.17306 -0.78493,6.36708 -0.0576,0.79851 -1.23382,0.72247 0,0 -3.62173,-0.63521 -2.29472,-0.38901 -10.52865,-0.92123 l -4.29949,-0.27792 q -1.66302,-0.1075 -2.0045,0.67266 -0.055,0.19701 -0.21903,2.47274 -0.21869,3.03431 0.12346,3.9389 0.58019,1.56174 5.06234,2.13224 -0.0811,-0.006 5.92195,0.3828 2.14975,0.13894 6.394,0.0523 4.28771,-0.12395 6.3969,0.0124 0.89234,0.0577 0.78876,1.49501 z m 62.71878,-38.50401 q -0.32806,4.55148 -1.39264,13.66815 -1.02118,9.07937 -1.35211,13.67078 l -1.89638,26.31077 q -0.0777,1.07798 -1.25397,1.00195 -0.97348,-0.063 -2.96672,-0.11149 -1.95272,-0.046 -2.92618,-0.10889 -1.05459,-0.0681 -3.15225,-0.3642 -2.09768,-0.29604 -3.15228,-0.3642 -0.7301,-0.0472 -1.64916,-1.43028 -2.64128,-4.06152 -11.90445,-18.01735 -2.53111,-3.89395 -7.72937,-11.49012 -0.14499,-0.25003 -0.57389,-0.51843 -0.34464,0.2585 -0.38781,0.85738 -0.3338,4.63134 -0.75805,13.90975 -0.38369,9.28101 -0.7175,13.91235 -0.10072,1.39738 -1.19587,1.32658 l -14.0342,-0.90715 q -1.17626,-0.0761 -1.08705,-1.31371 0.31078,-4.31194 1.34372,-12.98942 1.07351,-8.67488 1.38717,-13.02674 0.33093,-4.59141 0.58431,-13.76052 0.29393,-9.16649 0.62198,-13.71798 0.0633,-0.87835 1.64521,-0.7761 2.35253,0.15207 5.82326,0.0555 0.81699,-0.0275 3.24175,-0.31191 2.05397,-0.22824 3.23024,-0.15221 0.48673,0.0314 1.40292,1.45446 l 13.65887,21.37977 q 1.82949,2.88594 5.54346,8.46083 0.9248,1.30322 1.65492,1.3504 0.5273,0.0341 0.75175,-3.08008 0.30216,-4.19215 0.4226,-12.64786 0.16103,-8.45307 0.46606,-12.68516 0.10647,-1.47723 0.95826,-1.42217 2.43368,0.15731 7.35597,0.27492 4.92229,0.11761 7.35596,0.27493 0.77066,0.0498 0.68146,1.28751 z"
     id="text7"
     aria-label="MECHELEN" />
</svg>
